<svg xmlns="http://www.w3.org/2000/svg" viewBox="0 0 433.22 73.22">
  <defs>
    <style>
      .a {
        fill: #f1f2f2;
      }
    </style>
  </defs>
  <title>logo</title>
  <g>
    <path class="a" d="M13.46,17.06a2.58,2.58,0,0,1,1.26,2.3q0.18,1.8-.61,2.3v14.9q0,1.94.07,3.64T14.26,43v1.15q0,0.79.18,2.7T14.62,49q0,0.36.83,0.32l1.26,0H27.5a12.85,12.85,0,0,0,2.74-.5,12.86,12.86,0,0,1,2.88-.5,1.86,1.86,0,0,1,1.58,1.15,3.2,3.2,0,0,1,.36,2.38,2.16,2.16,0,0,1-1.19,1.69,3.85,3.85,0,0,1-1.55.47,2.6,2.6,0,0,1-1.15-.22,2.06,2.06,0,0,0-.94-0.22l-2.59-.11q-2.38-.11-5.26-0.14t-5.26-.11l-2.52-.07a5.72,5.72,0,0,1-1.37-.4,2,2,0,0,1-1.3-1q-0.07-.36-0.25-2.66T11.3,44q-0.22-2.81-.36-5.4T10.8,35.28V32.22q0-2.27.11-4.68t0.14-4.39q0-2,0-2.05a3.16,3.16,0,0,0-.4-1.08,1.63,1.63,0,0,1-.11-1.44,3.62,3.62,0,0,1,1-1.19A1.77,1.77,0,0,1,13.46,17.06Zm3.74,28.8-0.43-.14a3.86,3.86,0,0,1-.18-1.19q-0.11-1.19-.14-3.06t0-4.21V32.4q0-5.83.07-13.18Zm13.54,9.65q-2.45.22-4.61,0.22H22.61a4.22,4.22,0,0,1-2.16-.36Zm5.69-4a4.41,4.41,0,0,1-.86,2.63,2.88,2.88,0,0,1-1.22.76,3.73,3.73,0,0,1-1.87-.43,1.59,1.59,0,0,0,.72.14,3.55,3.55,0,0,0,1.37-.22,2.47,2.47,0,0,0,.68-0.65,9.11,9.11,0,0,0,.61-0.94A4.05,4.05,0,0,0,36.43,51.55Z"/>
    <path class="a" d="M69.41,23.11l-2.59.07-4.46.14q-2.81.22-6.12,0.29a8.1,8.1,0,0,0-.14,2v8a5.67,5.67,0,0,0,1.37-.14c0.48,0,.92-0.07,1.33-0.07a2.32,2.32,0,0,0,1-.22,8.82,8.82,0,0,1,1.12.11l1.58,0.22a12.82,12.82,0,0,0,1.66.11h1.19A12.85,12.85,0,0,0,67.32,33a3.9,3.9,0,0,1,2-.32,10,10,0,0,0,1.58.68q0.93,0.32.72,1.76a8.7,8.7,0,0,1-.36,2.23,1.85,1.85,0,0,1-1.8,1,3.72,3.72,0,0,1-1.8.11q-0.43-.18-1-0.47a5.25,5.25,0,0,0-1.48-.14H62.93q-1.23,0-2.3.07l-1.3.07a1.88,1.88,0,0,1-1.37.07,1.13,1.13,0,0,0-1.15.14,1.31,1.31,0,0,0-.43,1.08q-0.15,1-.25,2.2a19.41,19.41,0,0,0-.07,2.38,3.15,3.15,0,0,0,.18,1.33,4.44,4.44,0,0,1,.32,1.4c0,0.46,0,.76,0,0.9a5.15,5.15,0,0,1-.29,1.19,0.91,0.91,0,0,0,.22,1.19,1.87,1.87,0,0,0,1.62,0,7.48,7.48,0,0,1,1.76-.32q0.43,0,1.87.14t3.17,0.36q1.73,0.22,3.28.36a5.5,5.5,0,0,0,2.12-.07,14.92,14.92,0,0,0,3.31-.94,5.07,5.07,0,0,1,3-.5,1.74,1.74,0,0,1,1.26,1.62,13.46,13.46,0,0,1,.25,2.27,2.6,2.6,0,0,1-1.26,1.62,3.55,3.55,0,0,1-1.76.76,8.13,8.13,0,0,1-1.15-.11l-1.69-.29q-1-.18-1.87-0.4a6.42,6.42,0,0,0-1.26-.22h-7q-2.48,0-4.54,0l-2.41,0A2.14,2.14,0,0,1,53.86,53a3.48,3.48,0,0,1-.5-1.3s0-.56-0.14-1.55-0.21-2.06-.32-3.24-0.22-2.31-.29-3.42-0.11-1.85-.11-2.23a14.49,14.49,0,0,1,.29-2.77q0.29-1.48.43-2.05a3.62,3.62,0,0,0,.07-1.37q-0.07-1-.18-2.16t-0.25-2.41a18.63,18.63,0,0,1-.14-2.05q0-.79.07-2.2t0.25-3a19.78,19.78,0,0,1,.5-2.77,2.82,2.82,0,0,1,.83-1.58,6.9,6.9,0,0,1,2-.29q1.51-.07,3.31,0L63,18.79q1.55,0.07,2.05.07c0.33,0,.83,0,1.48-0.07s1.28-.12,1.91-0.22l1.8-.29a4.8,4.8,0,0,0,1.3-.36,4.52,4.52,0,0,1,1.58-.54,2.3,2.3,0,0,1,1.51.11A2.93,2.93,0,0,1,76,19a3.38,3.38,0,0,1,.47,2,4.51,4.51,0,0,1-.61,1.48,2,2,0,0,1-1.69.83,7.16,7.16,0,0,1-2.48,0A15.63,15.63,0,0,0,69.41,23.11ZM64.73,25q-1.3.22-2.3,0.43a7.3,7.3,0,0,1-1.62.36,1.71,1.71,0,0,0-1,.29,1.33,1.33,0,0,0-.36,1.33,9.6,9.6,0,0,0,.43,2.27,1.06,1.06,0,0,0,1,.86l1.66,0.29A8.48,8.48,0,0,0,64,31h0.54a7.27,7.27,0,0,1-1.33.07,15.68,15.68,0,0,0-2.41.22q-1.44.07-3.38,0.07a2.45,2.45,0,0,1,.29-0.65,7,7,0,0,0,.07-1.3V26.93A14.74,14.74,0,0,1,57.89,25h6.84Zm-7,14.62q0.29,0.72.5,1.44a7.64,7.64,0,0,1,.4,1.76q0.11,1,.32,2.27t0.11,1.58a0.33,0.33,0,0,0,.32.36,0.85,0.85,0,0,0,.43-0.43l-1.58.29q-0.07-1.73-.22-3.31-0.15-1.37-.22-2.48T57.74,39.6Zm1.8,0.86q-0.15.07,0.4-.11A9.59,9.59,0,0,1,61.42,40q0.93-.14,1.84-0.25a1.74,1.74,0,0,1,1.26.18L63.9,40q-0.69,0-1.66.18t-1.8.22Zm9-9.58a3.06,3.06,0,0,1,.86.36,3.64,3.64,0,0,1,1.15,1Z"/>
    <path class="a" d="M95.47,53.5q-0.65-.14-0.5-1.22a9.22,9.22,0,0,1,.72-2.41,21.78,21.78,0,0,1,1.26-2.48,14.38,14.38,0,0,0,1-1.87,9.54,9.54,0,0,0,1-2.23,11.18,11.18,0,0,0,.47-1.8,7.9,7.9,0,0,0,.29-1.66,17.24,17.24,0,0,1,.94-3.46,39.22,39.22,0,0,1,2.23-5.26,11.23,11.23,0,0,0,1.3-3.1,6.5,6.5,0,0,1,.11-1.12,5.44,5.44,0,0,1,.4-1.26,5.93,5.93,0,0,1,.72-1.4,1.93,1.93,0,0,0,.43-1,2.91,2.91,0,0,0-.29-1.15,3,3,0,0,1-.22-1.51,7.09,7.09,0,0,1,.47-1,7.37,7.37,0,0,1,.76-1.15,4.73,4.73,0,0,1,.94-0.9,0.7,0.7,0,0,1,.94,0,3,3,0,0,1,.68,1.3q0.25,0.86.47,1.8a12.77,12.77,0,0,1,.29,1.8,3,3,0,0,0,.29,1.22q0.14,0.43.76,1.91t1.37,3.24q0.76,1.77,1.51,3.6a32.55,32.55,0,0,1,1.12,3.06q0.43,1.08,1.19,3.13t1.62,4.1q0.86,2.05,1.55,3.78t0.9,2.16a4.57,4.57,0,0,0,1.3,1.76,1.51,1.51,0,0,1,.58,1.76,2.58,2.58,0,0,1-.61,1.58,2.3,2.3,0,0,1-1.91.14,2,2,0,0,1-1.8-1.3q-0.43-1.15-.65-1.87a3,3,0,0,0-.32-1.08q-0.32-.72-0.65-1.33T115.38,47q-0.4-.61-0.47-0.68a1.06,1.06,0,0,0-1.19.29,13.58,13.58,0,0,1-1.69,1,2.61,2.61,0,0,1-1.91.29,18.92,18.92,0,0,0-3.42-.22,9.91,9.91,0,0,0-3.31.4,5,5,0,0,1-1.8.4,1.21,1.21,0,0,1-1.19-.65,0.81,0.81,0,0,0-1-.5A0.47,0.47,0,0,0,99,48a2.08,2.08,0,0,1,0,1.26,13.85,13.85,0,0,1-.47,1.91,8.15,8.15,0,0,1-1,2.2q-0.58,1-1.12.65A4.25,4.25,0,0,0,95.47,53.5ZM101,50.4a4.11,4.11,0,0,1-.94,2.81,9.06,9.06,0,0,1-1.37,1.37,0.62,0.62,0,0,1,.22-0.43,0.87,0.87,0,0,1,.29-0.47l0.5-.4a7,7,0,0,0,.86-1.66A13,13,0,0,1,101,50.4ZM113.4,38.52L112.32,36q-0.86-2.05-1.91-4.28t-1.91-4a6.19,6.19,0,0,0-1.15-1.87q-0.65-.22-0.79.22a5,5,0,0,1-.65,1.15,10,10,0,0,1-.94,1.08c-0.34.34-.43,0.53-0.29,0.58l0.76,0.47a0.69,0.69,0,0,1,.4.54s-0.14.47-.43,1.26-0.64,1.7-1,2.74-0.79,2-1.15,3a19.27,19.27,0,0,0-.68,2.12,5.13,5.13,0,0,1-.58,1.4q-0.43.76-.86,1.4a6.6,6.6,0,0,0-.65,1.19c-0.14.36-.12,0.56,0.07,0.61a5.46,5.46,0,0,0,1,.32,4.5,4.5,0,0,0,1.94-.4,14.86,14.86,0,0,0,2-.76,0.78,0.78,0,0,1,.94,0,8.1,8.1,0,0,0,3,.36,5.57,5.57,0,0,1,1.33.22q0.83,0.22,1.58.36a3.91,3.91,0,0,0,1.26.07,0.6,0.6,0,0,0,.58-0.5,5.44,5.44,0,0,0,.11-2.27A7.6,7.6,0,0,0,113.4,38.52Zm-11.88,11.3q2.16-.29,4.25-0.36,1.73-.14,3.31-0.18a9.75,9.75,0,0,1,2.45.18Zm3-10.37q0.29-1.15.72-2.45a11.29,11.29,0,0,1,.61-2.05,3.26,3.26,0,0,1,.76-1.26,8,8,0,0,0-.29,1.3,2.73,2.73,0,0,1-.5,1.44,5.65,5.65,0,0,1-.29.79c-0.14.34-.31,0.7-0.5,1.08Zm1,1.22h0.58a2.32,2.32,0,0,0,.86-0.14,0.64,0.64,0,0,1,.79.43,6.49,6.49,0,0,1,.43,1.08Zm16.85,5.69a2.26,2.26,0,0,1-.72-1.3q-0.43-1.22-1.15-3.06l-1.66-4.21q-0.94-2.38-2-5-2.23-5.76-5-13.1,3.31,7.78,5.76,13.9l2,5.08q1,2.48,1.66,4.21t1,2.74Q122.61,46.66,122.4,46.37Z"/>
    <path class="a" d="M139,17.5a7.53,7.53,0,0,1,2.05-.14h3.06l2.2,0q1.62,0,3.17,0t3,0a3.33,3.33,0,0,0,1.62-.25q0.58-.22.43-0.11c-0.1.07,0,.21,0.43,0.4a4,4,0,0,1,1.55.54,9.5,9.5,0,0,1,1.91,1.55,10.32,10.32,0,0,1,3.67,8,5.2,5.2,0,0,1-.76,3.13,24.72,24.72,0,0,1-2,3,11.46,11.46,0,0,1-2.16,2.16,4.1,4.1,0,0,0-1.12,1c-0.19.14-.25,0.25-0.18,0.32a0.86,0.86,0,0,1,.11.54A27.63,27.63,0,0,0,157.39,42a9,9,0,0,0,1.12,2.2q0.76,1.12,1.55,2.23t1.4,2a8.42,8.42,0,0,1,.76,1.26,3.22,3.22,0,0,1,.07,1.76,2.77,2.77,0,0,1-1.58,1.33,1.05,1.05,0,0,1-1.33-.32A9.13,9.13,0,0,1,158,50.69a16.29,16.29,0,0,1-1.15-2.34q-0.5-1.26-.86-2.2l-1-2.38-1.33-3.1q-0.68-1.58-1.33-2.84a3.88,3.88,0,0,0-1.15-1.55,2.23,2.23,0,0,0-2-.07,6.54,6.54,0,0,1-2,.58,9.57,9.57,0,0,1-2.77.29,7.17,7.17,0,0,0-2.34.22,1.69,1.69,0,0,0-.36,1.44,14,14,0,0,0,.22,1.8c0,0.24,0,.62-0.07,1.15s-0.1,1.12-.14,1.76-0.11,1.26-.18,1.84a11.38,11.38,0,0,0-.11,1.3,5.14,5.14,0,0,0,.54,1.8,4.43,4.43,0,0,1,.47,2.09,2.58,2.58,0,0,1-1,1.62,1.86,1.86,0,0,1-1.69.47A2.55,2.55,0,0,1,139,52.2a8.21,8.21,0,0,0-.5-1,6.05,6.05,0,0,1-.36-2.16Q138,47.45,138,45.72t0.07-3.24q0.07-1.51.07-1.87V37.4q0-2.77-.07-6T138,25.31V22a18.72,18.72,0,0,1,.22-2.59A2.62,2.62,0,0,1,139,17.5Zm3.89,22.32c0-.24,0-0.61,0-1.12s0.16-.68.54-0.54a11.07,11.07,0,0,1,1.4.68,2.89,2.89,0,0,0,1.48.4,1.5,1.5,0,0,1,1.12.65q0.54,0.65-.18.72a3.33,3.33,0,0,1-1.66-.43l-0.65-.36a2.9,2.9,0,0,0-.22,1.15c0,0.38,0,.83-0.07,1.33a6.84,6.84,0,0,0,.07,1.69,15.5,15.5,0,0,1-.22,2.38l-0.43,2.74a18.75,18.75,0,0,1-.54,2.45,6.18,6.18,0,0,1-.61,1.51q-0.43.58-1.66-.29l-1.08-1.08a4.23,4.23,0,0,0,1.94.58,0.55,0.55,0,0,0,.43-0.07,3.85,3.85,0,0,1,.58-0.72,1.92,1.92,0,0,0,.54-1.08,13.06,13.06,0,0,0,0-1.58q0-.5-0.14-1.87T143.24,44q-0.11-1.55-.22-2.77T142.92,39.81Zm10.3-18.29-1,.11a0.75,0.75,0,0,0-.5.32,5.28,5.28,0,0,1-2.05.11Q148.1,22,147.53,22a8.56,8.56,0,0,0-1.33.11,8.11,8.11,0,0,1-1.26.11,2.85,2.85,0,0,0-1,.11,0.92,0.92,0,0,1-.76-0.18q-1.15-.43-1.51,0a3.34,3.34,0,0,0-.14,1.15s0,0.29.07,0.72,0.1,0.92.14,1.48,0.11,1.08.18,1.58a8.81,8.81,0,0,1,.11,1.12,3.23,3.23,0,0,0,.18.94,0.71,0.71,0,0,1-.18.65,6.57,6.57,0,0,0-.5,1.3,1.29,1.29,0,0,0,0,1.22q0.29,0.43,1.44-.07a7.77,7.77,0,0,1,1.3-.5,5.76,5.76,0,0,1,.9.14q0.68,0.15,1.62.29t2,0.36a9,9,0,0,0,1.76.22,14.69,14.69,0,0,0,3.13-.18,4.61,4.61,0,0,0,2.41-1.12,7.49,7.49,0,0,0,1.73-2.23,3.83,3.83,0,0,0,.43-2.66,8,8,0,0,0-.65-2.41,3.44,3.44,0,0,0-1.37-1.62A6,6,0,0,0,153.21,21.53Zm-10,2.74c0-.1.16-0.14,0.47-0.14a4.37,4.37,0,0,1,1,.14l1.58,0.29h-1a5.06,5.06,0,0,0-1.44.14q-0.5.36,0,1.22a3.29,3.29,0,0,0,.43.94l-0.14-.14a1.18,1.18,0,0,1-.43-0.72,1.67,1.67,0,0,0-.4-0.9A0.6,0.6,0,0,1,143.21,24.26Zm0.65,4.1L144.29,29a1.77,1.77,0,0,0,.86.5L146.38,30a6.45,6.45,0,0,0,1.73.36l-3.82-.22-0.94-.65a2,2,0,0,1,.07-0.43,1.55,1.55,0,0,0,.29-0.86Zm11.66-13.18a30.09,30.09,0,0,1,5,3.17A9.67,9.67,0,0,1,163,21.27a7.73,7.73,0,0,1,.86,3q0.11,1.51.32,3.31a8.91,8.91,0,0,1-.54,3.42,12.92,12.92,0,0,1-1.51,3,24.73,24.73,0,0,1-1.69,2.2,5.81,5.81,0,0,0-.86,1.12,5.11,5.11,0,0,0,.29,1.69,24.85,24.85,0,0,0,1,2.92q0.58,1.73,1.51,3.89-1.23-2.23-2.16-4a28.15,28.15,0,0,1-1.51-2.88,6.38,6.38,0,0,1-.58-1.58,3,3,0,0,1,1-1.22q1-.93,2.34-2t1.87-4.64a20.59,20.59,0,0,0-.22-6.66,6.52,6.52,0,0,0-1.55-3A20.19,20.19,0,0,0,159,17.35Q157.39,16.27,155.52,15.19Zm6.26,38.45a0.6,0.6,0,0,1,.4-0.22,2.57,2.57,0,0,0,.83-0.36,1.73,1.73,0,0,0,.54-0.79q0.18-.5.32-1.08l0.29-1.58a4.53,4.53,0,0,1,.07.86,3.92,3.92,0,0,1-.5,1.87,2.85,2.85,0,0,1-1.37,1.4Q161.64,54,161.78,53.64Z"/>
    <path class="a" d="M185.54,50.9a5.67,5.67,0,0,1-.83,1.19,4.23,4.23,0,0,1-1.26,1.12q-1.3.15-2.16-2.59a16.14,16.14,0,0,1-.22-3.46V41.33q0-3.1.11-5.65t0.11-2.92a7.82,7.82,0,0,1,.29-1.91,8.53,8.53,0,0,0,.29-2.12,10,10,0,0,1,.4-2.38,5.51,5.51,0,0,0,.25-2.23,4,4,0,0,0-.22-0.79,14.57,14.57,0,0,0-.54-1.37,8.92,8.92,0,0,1-.5-1.4,4.58,4.58,0,0,1-.18-1.12,2.8,2.8,0,0,1,1.51-1.3,10.17,10.17,0,0,0,1.73-1,2.26,2.26,0,0,0,.47-0.83q0.11-.39.11-0.11V17a1,1,0,0,0,.36.83,6.19,6.19,0,0,1,1.12,2.09,9.83,9.83,0,0,0,1.33,2.52q0.22,0.36,1,2.09t1.73,3.67q0.9,1.94,1.73,3.67a18.19,18.19,0,0,0,1.19,2.23,20.63,20.63,0,0,0,2.45,3.24q0.86,1.08,1.87,2.23a0.57,0.57,0,0,1-.36.07,1.59,1.59,0,0,1-.43.22,1.26,1.26,0,0,0-.36.14,0.61,0.61,0,0,0-.32.79,14.75,14.75,0,0,0,.32,1.44,5.07,5.07,0,0,0,.5,1.48q0.36,0.68.94,1.62a1.76,1.76,0,0,0,1.19,1.12,1.31,1.31,0,0,0,1.19-.4,2.27,2.27,0,0,0,.79-1.73,14,14,0,0,1,.43-2.3q0-.58.07-2.88t0.22-5q0.14-2.66.18-5t0-3a8,8,0,0,0-.32-3.38,10.48,10.48,0,0,1-.54-2.52,1.26,1.26,0,0,1,.68-0.94,5.76,5.76,0,0,1,1-.5,5.79,5.79,0,0,0,1.22-1.51L205,16.2a2.81,2.81,0,0,0,.36,1,3.05,3.05,0,0,1,.25.94,1.36,1.36,0,0,0,.25.72,2.82,2.82,0,0,1-.18,1.51,15.75,15.75,0,0,0-.54,2.81q-0.07.86-.11,3.06t0,5q0,2.81-.11,5.69T204.77,42a27.11,27.11,0,0,0,.58,6.73,7,7,0,0,1,.29,3.35,1.15,1.15,0,0,1-.72,1,5.27,5.27,0,0,1-1.37.4,5.05,5.05,0,0,1-1.48,0,2.41,2.41,0,0,1-1-.32,1.36,1.36,0,0,1-.61-0.9,15.8,15.8,0,0,1-.43-1.55q-0.18-.79-0.36-1.48a3,3,0,0,0-.25-0.76l-2.52-3.38a16.17,16.17,0,0,0-1-1.76q-0.9-1.4-2.12-3.56T191,35.24q-1.44-2.41-2.7-4.46l-2.16-3.53q-0.9-1.48-1-1.55a0.63,0.63,0,0,0-.9,0,6.85,6.85,0,0,1-1,.83,1.74,1.74,0,0,0-.25,1,13.22,13.22,0,0,0,0,1.69q0.14,1.08.22,2.16a6.51,6.51,0,0,0,.65-0.94q0.5-.93.65-0.72a5.12,5.12,0,0,1,0,1.8q-0.18,1.23-.32,3.31v3.2q0,2,.07,4.1T184.35,46q0,1.66,0,2a4.91,4.91,0,0,0,.72,1.44A1.9,1.9,0,0,1,185.54,50.9Zm-0.72,2.74a4,4,0,0,1,1.15-.86l0.65-.65a7.08,7.08,0,0,1-.86,1.08,2.87,2.87,0,0,1-.54.76,0.89,0.89,0,0,0-.32.54c0,0.14-.1.06-0.14-0.25A0.74,0.74,0,0,1,184.82,53.64Zm12.89-17.86a3.92,3.92,0,0,1-.72-0.65,21,21,0,0,0-1.12-2q-0.83-1.37-2.34-4.25t-3-5.18q-1.51-2.45-2.81-4.25a45,45,0,0,0-2.81-3.6,3.07,3.07,0,0,1,.86.36,6.38,6.38,0,0,1,.79.47q0.36,0.25.86,0.54a3.91,3.91,0,0,1,1.15,1.37q0.65,1.08,1.4,2.45t1.51,2.84q0.76,1.48,1.4,2.56t1.48,2.66q0.83,1.58,1.62,3.17Q196.85,34.06,197.71,35.78ZM186.91,51c0-.1,0-0.41,0-0.94s-0.08-1.21-.18-2.05-0.16-1.82-.18-3-0.08-2.24-.18-3.35q-0.29-3.89-.58-8.64a15.32,15.32,0,0,0,.72,2.38q0.14,1,.36,1.94a7.17,7.17,0,0,1,.22,1.22,8.66,8.66,0,0,0-.14,2.23V51Zm1.58-11.23,0.14,0.58-0.72.58Zm17.42,14.11a4.05,4.05,0,0,1-.86.65l-0.72.47a1.08,1.08,0,0,1-.58.18,4.92,4.92,0,0,1-.94.29h-0.5Zm0.86-19.22V29.38q0-2.59.14-4.64t0.25-3.46a4.41,4.41,0,0,1,.4-1.84q-0.07,7.34-.07,13.25V46.08a1.24,1.24,0,0,1-.29.79,1.06,1.06,0,0,0-.29.58,1.62,1.62,0,0,1-.07.5,1.17,1.17,0,0,0-.07.29V34.7ZM207.07,50a1.67,1.67,0,0,1,.14.58V51a0.56,0.56,0,0,1-.14.5V50Z"/>
    <path class="a" d="M234.86,42.19a2.69,2.69,0,0,0-.22,2,3.36,3.36,0,0,1-.14,2.09,3.7,3.7,0,0,1-.36,1,0.64,0.64,0,0,0-.07.29V45.72a1.78,1.78,0,0,0-.14-0.65,2.78,2.78,0,0,1-.14-1,2.43,2.43,0,0,1,.58-1.3A1.16,1.16,0,0,1,234.86,42.19ZM234.72,48a1.76,1.76,0,0,1,1.08-1.22l1.3-.72a0.46,0.46,0,0,0-.29-0.43,4.13,4.13,0,0,0-.65-0.25,2,2,0,0,1-.61-0.29,0.79,0.79,0,0,1-.25-0.68q0.14-1.08.32-2a0.93,0.93,0,0,1,.9-0.94,5.57,5.57,0,0,1,.94.25,5.12,5.12,0,0,1,1.48.76,5.21,5.21,0,0,1,1.26,1.4,3.62,3.62,0,0,1,.5,2.2q-0.29,2.66-1.69,3.2a4.91,4.91,0,0,1-2.41.4Q234.72,49.25,234.72,48Z"/>
    <path class="a" d="M272.66,17.06a2.58,2.58,0,0,1,1.26,2.3q0.18,1.8-.61,2.3v14.9q0,1.94.07,3.64T273.45,43v1.15q0,0.79.18,2.7t0.18,2.2q0,0.36.83,0.32l1.26,0h10.8a12.85,12.85,0,0,0,2.74-.5,12.86,12.86,0,0,1,2.88-.5,1.86,1.86,0,0,1,1.58,1.15,3.2,3.2,0,0,1,.36,2.38,2.16,2.16,0,0,1-1.19,1.69,3.85,3.85,0,0,1-1.55.47,2.6,2.6,0,0,1-1.15-.22,2.06,2.06,0,0,0-.94-0.22l-2.59-.11q-2.38-.11-5.26-0.14t-5.26-.11l-2.52-.07a5.72,5.72,0,0,1-1.37-.4,2,2,0,0,1-1.3-1q-0.07-.36-0.25-2.66T270.5,44q-0.22-2.81-.36-5.4T270,35.28V32.22q0-2.27.11-4.68t0.14-4.39q0-2,0-2.05a3.16,3.16,0,0,0-.4-1.08,1.63,1.63,0,0,1-.11-1.44,3.62,3.62,0,0,1,1-1.19A1.77,1.77,0,0,1,272.66,17.06Zm3.74,28.8L276,45.72a3.86,3.86,0,0,1-.18-1.19q-0.11-1.19-.14-3.06t0-4.21V32.4q0-5.83.07-13.18Zm13.54,9.65q-2.45.22-4.61,0.22h-3.53a4.22,4.22,0,0,1-2.16-.36Zm5.69-4a4.41,4.41,0,0,1-.86,2.63,2.88,2.88,0,0,1-1.22.76,3.73,3.73,0,0,1-1.87-.43,1.59,1.59,0,0,0,.72.14,3.55,3.55,0,0,0,1.37-.22,2.47,2.47,0,0,0,.68-0.65,9.11,9.11,0,0,0,.61-0.94A4.05,4.05,0,0,0,295.63,51.55Z"/>
    <path class="a" d="M329.61,17.64a5.66,5.66,0,0,0,.94.07,4,4,0,0,0,.79.07,0.76,0.76,0,0,1,.65.29,1.91,1.91,0,0,1,.43.94,5.67,5.67,0,0,1,.14,1.22,8.68,8.68,0,0,1-.22,1.8v-1.8a10.73,10.73,0,0,0-.07-1.15,1.42,1.42,0,0,0-1.62-1,2.06,2.06,0,0,0-1.48.32c-0.24.14-.25,0.3,0,0.47a3.43,3.43,0,0,0,.9.47,2.46,2.46,0,0,1,1.58,1.87,1.28,1.28,0,0,1-.32,1.4,13.75,13.75,0,0,1-1.19,1.19,1.79,1.79,0,0,1-1.84.47,6,6,0,0,1-1.55-.47,2.53,2.53,0,0,0-1.87,0,0.91,0.91,0,0,0-.43.79V45.9q0,0.9.07,1.8t0.11,1.69c0,0.53.13,0.79,0.32,0.79a1.66,1.66,0,0,0,1.12-.58,2.16,2.16,0,0,1,1.26-.65,1.93,1.93,0,0,1,1,.5,1.43,1.43,0,0,0,1,.43,2,2,0,0,1,1.94.43,1.62,1.62,0,0,1,.25,1.58,5.9,5.9,0,0,1-.83,1.94,2,2,0,0,1-1.84,1,7.43,7.43,0,0,1-2.27-.25q-1.08-.14-2.45-0.25t-2.52-.11q-1.3,0-3.31.18t-2.38-.18q-0.29-.14,0-0.72a10.16,10.16,0,0,1,.65-1.12q0.36-.54.79-1.08a1.15,1.15,0,0,1,.72-0.54,1.88,1.88,0,0,1,1.12.18,1.37,1.37,0,0,0,1.12,0,1.62,1.62,0,0,0,1-1q0.25-.76.47-1.62V45.21q0-2.81-.11-6.19t-0.18-6.34q-0.07-3-.07-3.89,0-3.82-1.22-5.4a1.91,1.91,0,0,0-1.08-.22q-0.79,0-1.69,0a3.18,3.18,0,0,1-1.51-.4,1.07,1.07,0,0,1-.4-1.3,1.78,1.78,0,0,1,.65-1.37,2.79,2.79,0,0,1,1.22-.54,4.83,4.83,0,0,1,1.44,0,9.67,9.67,0,0,0,1.22.11l2.09,0.14a17.2,17.2,0,0,0,3-.14,3.93,3.93,0,0,0,2.38-1,3.48,3.48,0,0,1,.86-0.9,2.39,2.39,0,0,0,.9-0.61,1,1,0,0,1,1.12-.25,0.84,0.84,0,0,1,.72.47,0.6,0.6,0,0,1-.58.4,0.64,0.64,0,0,1-.72,0Zm-9.65-1a5.62,5.62,0,0,1,2.27-.25q1.69,0,3.49.25,2.16,0.07,4.68.29Zm7.2,19.73q0.14,3.46.22,6.48a20,20,0,0,0,.22,3.38,1.47,1.47,0,0,0,0,.36,1,1,0,0,1,0,.22,0.59,0.59,0,0,0,.22.36l-0.58.14-0.29-20Zm0.94,11.38a0.87,0.87,0,0,1,1.19-.68,9.43,9.43,0,0,1,2.12,1,2,2,0,0,1,1.19,2.05,7.84,7.84,0,0,0,0,1.62q0.14,0.36,0-.25a6.48,6.48,0,0,1-.11-1.12,1.83,1.83,0,0,0-.58-1.08,7.12,7.12,0,0,0-.86-0.86,5.12,5.12,0,0,1-.61-0.07,7.28,7.28,0,0,0-1.08-.07,3.49,3.49,0,0,1-1-.11A0.41,0.41,0,0,1,328.1,47.73Z"/>
    <path class="a" d="M376.34,27.86a1,1,0,0,1-.58.22,1.75,1.75,0,0,1-1.3-.5,1.33,1.33,0,0,1-.65-1.15,2,2,0,0,0-.22-1.15,8.91,8.91,0,0,0-1.33-1.8,6.84,6.84,0,0,0-2-1.58,4.61,4.61,0,0,0-3-.5,21.89,21.89,0,0,0-3.35.43,5.68,5.68,0,0,0-1.66.54,15.43,15.43,0,0,0-1.94,1.08,11.65,11.65,0,0,0-1.66,1.3,2,2,0,0,0-.72,1.48,3.34,3.34,0,0,0,1.22,2.59A6.91,6.91,0,0,0,360.86,30a1.22,1.22,0,0,1,.58.14,4.1,4.1,0,0,0,1.15.58,9.86,9.86,0,0,0,3.13.94,16.57,16.57,0,0,1,2.92.65,8,8,0,0,0,2.52.43,3.23,3.23,0,0,0,1.37,0,0.2,0.2,0,0,1-.07-0.14,2.17,2.17,0,0,1,.07-0.65,1.13,1.13,0,0,1,1,.32,12.89,12.89,0,0,1,1.69,1.48q0.86,1,2.23,2.88A8.73,8.73,0,0,1,379,41.18a8.13,8.13,0,0,1-1.12,5,16.13,16.13,0,0,1-3.28,4.1,9.8,9.8,0,0,1-2.66,1.4,14,14,0,0,1-3.56.79,21.32,21.32,0,0,1-3.92,0,9.92,9.92,0,0,1-3.6-1,11,11,0,0,1-3-1.87,15.34,15.34,0,0,1-2.34-2.63,11.59,11.59,0,0,1-1.55-3,8.09,8.09,0,0,1-.5-2.56,2.39,2.39,0,0,1,.47-1.66,5.21,5.21,0,0,1,.9-0.79,2,2,0,0,1,1.3,0,0.57,0.57,0,0,0-.07-0.22,0.56,0.56,0,0,1-.14-0.65,0.91,0.91,0,0,1,.72-0.79,2.53,2.53,0,0,0,.65-0.22,2,2,0,0,1-.07.43,1.65,1.65,0,0,0-.29.94,1.44,1.44,0,0,0,.14.94,1.64,1.64,0,0,0,.58.58,0.58,0.58,0,0,0,.5.32,1,1,0,0,1,.65.76,0.77,0.77,0,0,1-.11,1,1.32,1.32,0,0,0-.4,1,1.67,1.67,0,0,0,.4,1.12l1.4,1.69a13.87,13.87,0,0,1,1,1.12,3.19,3.19,0,0,0,1.08.86,6.19,6.19,0,0,0,1.73.5,17.62,17.62,0,0,0,2.81.18,8.69,8.69,0,0,0,8.06-4.54,4.62,4.62,0,0,0,.14-3.28,5.78,5.78,0,0,0-1.66-3.06,6.17,6.17,0,0,0-2-.9q-1.37-.4-3.06-0.72t-3.31-.58q-1.62-.25-2.7-0.47l-2.3-.65a5.53,5.53,0,0,1-2.38-1.4,9,9,0,0,1-1.87-2.77,11.4,11.4,0,0,1-.79-4.68,6.75,6.75,0,0,1,1.69-4.64,11.7,11.7,0,0,1,4-3,16.49,16.49,0,0,1,4.9-1.33,14.28,14.28,0,0,1,4.07,0,7.08,7.08,0,0,1,3,1.22,19.47,19.47,0,0,1,2.38,2A16.26,16.26,0,0,1,376.81,22a5.82,5.82,0,0,1,.9,1.66,3.44,3.44,0,0,1,0,2.63A2.58,2.58,0,0,1,376.34,27.86ZM361.22,37.8a1.69,1.69,0,0,0,.68.29,8.61,8.61,0,0,0,1,.22,4.08,4.08,0,0,0,1.15.43h-1.44a6.16,6.16,0,0,1-1-.07,4.92,4.92,0,0,0-.79-0.07h-0.54a2.83,2.83,0,0,1-.68-0.07,5.74,5.74,0,0,0-.79-0.29,0.73,0.73,0,0,1,.36.5,11.58,11.58,0,0,1,.72,1.22q0.22,0.72.65,1.94a3.72,3.72,0,0,0,.79,1.51,6,6,0,0,0,1,.54,4.64,4.64,0,0,0,1.12.32,3.39,3.39,0,0,0,.79.07h1a3.88,3.88,0,0,1,1.22.22h-2.16a9.18,9.18,0,0,1-1.66-.14,2.78,2.78,0,0,1-1.37-.65,9.89,9.89,0,0,1-1.69-3.1,10.85,10.85,0,0,0-1.33-2.74,4.12,4.12,0,0,0-.83-0.86q-0.47-.36-0.18-0.36a7.76,7.76,0,0,1,1.76.5A9.79,9.79,0,0,0,361.22,37.8Zm9.14-8.35q-0.94-.07-2-0.07h-1.66a2.71,2.71,0,0,1-1.08-.14l-1.26,0a10.45,10.45,0,0,1-1.69-.22A6.14,6.14,0,0,1,361,28.4a2.2,2.2,0,0,1-.4-3.64,3.77,3.77,0,0,1,2.3-1.15l1.3,0q0.79,0,1.37.11a9.18,9.18,0,0,0,1.51.29h-2.88a3.35,3.35,0,0,0-2,.68,1.11,1.11,0,0,0-.29,1.69,2.45,2.45,0,0,0,1,.76,8.14,8.14,0,0,0,1.87.61l1.91,0.4a7.66,7.66,0,0,0,1.08.18,10.53,10.53,0,0,1,1.58.58Zm6.12,2.74q0.36-.22,1,0.54T379,34.49a15,15,0,0,1,1.44,2.23,7.48,7.48,0,0,1,.79,2,8.72,8.72,0,0,1,.11,2.52,21.44,21.44,0,0,1-.58,3.6,15.5,15.5,0,0,1-1.55,3.89,10.22,10.22,0,0,1-3,3.31A12.69,12.69,0,0,1,372.06,54a24.43,24.43,0,0,1-4.21.72,17.23,17.23,0,0,1-3.38,0l-1.51-.18q-0.29-.22,1.19-0.11T367,54.5a11.24,11.24,0,0,0,3.53-.76,26.38,26.38,0,0,0,4.1-1.84,19.89,19.89,0,0,0,3.49-2.74q1.62-1.58,2.48-5.69a9.93,9.93,0,0,0,0-3.85,14.65,14.65,0,0,0-1-3.28,16.19,16.19,0,0,0-1.87-3.1l-0.79-.5Q376.05,32.33,376.48,32.18Zm0.79-3.38a2.13,2.13,0,0,1,.61-0.32,4.93,4.93,0,0,0,1-.61,2.07,2.07,0,0,0,.61-1.19,3.37,3.37,0,0,0,0-1.62q-0.15-.86-0.43-1.94l-0.29-.58-0.14-.72a1.66,1.66,0,0,0-.22-0.65,8.6,8.6,0,0,1-.54-0.94q-0.25-.5-0.76-1.37A8.11,8.11,0,0,0,375,17.21a26.87,26.87,0,0,0-3.1-1.58Q370,15,367.77,14.18a0.74,0.74,0,0,0,.43.07h1.22a10.49,10.49,0,0,1,2.74.9,26.63,26.63,0,0,1,3.24,1.55,9.26,9.26,0,0,1,2.16,2.12q1.22,1.55,1.08,1.84a0.47,0.47,0,0,0,.14.58,1.62,1.62,0,0,0,.22.36l0.5,0.29a0.73,0.73,0,0,1,.58.43l-0.36.36a0.69,0.69,0,0,1-.36.14,10.44,10.44,0,0,0,.36,1.44q0.07,0.72.11,1.4t0,1a2.67,2.67,0,0,1-.83,1.87q-0.83.86-1,1.15a0.5,0.5,0,0,1-.72,0,1,1,0,0,1-.43-0.83Z"/>
    <path class="a" d="M411.76,16.92H413a6.71,6.71,0,0,0,1.08-.07,7.2,7.2,0,0,1,1.08-.22H417a4.54,4.54,0,0,0,1.8-.29,3.86,3.86,0,0,0,1-.47,4.57,4.57,0,0,1,1.51-.54,2.89,2.89,0,0,1,1.62.18,1.92,1.92,0,0,1,1.08,1.4q0.86,2.52.43,3.6a2.24,2.24,0,0,1-1.73,1.37,6.7,6.7,0,0,0-1.48.29,1.08,1.08,0,0,1-1-.36,1.85,1.85,0,0,0-1.58-.43q-0.94.15-1.66,0.22a4.28,4.28,0,0,0-.65.36,3.16,3.16,0,0,1-1,.07,2.09,2.09,0,0,1-1.15-.22,2.11,2.11,0,0,0-1-.29,2.51,2.51,0,0,0-.47,0,2.4,2.4,0,0,1-.47,0h-0.43V46.8l0.5,2.09a9.64,9.64,0,0,1,.43,1.33,0.92,0.92,0,0,1-.14.9,4.17,4.17,0,0,1-1.26.9,2.17,2.17,0,0,1-1.48.32,3.13,3.13,0,0,1-1.26-1.58,8.66,8.66,0,0,1-.32-4.54q0.14-1.51.32-4.75T409,35q0.14-3.2.22-5.94a20.07,20.07,0,0,0-.07-3.38,11.23,11.23,0,0,1-.22-1.55,13.16,13.16,0,0,0-.25-1.73,5.37,5.37,0,0,0-.47-1.37,0.88,0.88,0,0,0-.79-0.54,2.05,2.05,0,0,0-1.55.36,2.16,2.16,0,0,1-.83.65,2.82,2.82,0,0,1-.86.07q-0.72,0-1.55,0l-1.55-.07a1.5,1.5,0,0,1-.94-0.25,10.67,10.67,0,0,1-1.44-1.3A3,3,0,0,1,397.65,18a3.16,3.16,0,0,1,.29-1.19,1.06,1.06,0,0,1,1-.4q0.36,0,2.12.11L405,16.74q2.16,0.11,4.1.14Zm2.45,6.19a1.45,1.45,0,0,1,1-.22h2.09q1.19,0,2.41.11t1.94,0.11a3.41,3.41,0,0,0,2.38-1,1.88,1.88,0,0,0,.86-0.86,2.5,2.5,0,0,1-.58.79,11,11,0,0,1-1.3,1.08,5.58,5.58,0,0,1-1.44.22q-1.08.07-2.34,0.22a20.54,20.54,0,0,1-2.34.14h-1.3a0.54,0.54,0,0,0-.65.58V34q0,3.74.07,7.45t0.07,5.51a12.12,12.12,0,0,1,0,2.66,3.09,3.09,0,0,1-.36,1.22,0.84,0.84,0,0,1-.72.58,1.57,1.57,0,0,0,.29-0.58,4.3,4.3,0,0,0,.22-1.37V48.09q0-1.3,0-3.2t-0.11-4.25q-0.07-2.34-.07-4.86Q414.21,30.24,414.21,23.11Z"/>
  </g>
</svg>
